<svg xmlns="http://www.w3.org/2000/svg" viewBox="0 0 128 128"><path fill="#8d5459" d="M87.8,68.9L87.8,68.9c1.9-3,1.1-7-2-9l-5.9-3.8c-3-1.9-7-1.1-9,2l0,0c-1.9,2.9-4.9,4.9-8.3,5.6c-5.2,1.1-10,4.2-13,9.2c-5.4,8.8-3,20.6,5.4,26.6c9.4,6.7,22.4,4.2,28.5-5.5c3.1-4.8,3.8-10.4,2.6-15.6C85.2,75.3,85.9,71.8,87.8,68.9z"/><path fill="#fff" d="M102.1,39.7c-0.9-0.9-1.9-1.4-3-1.6c-2-0.4-3.7-1.5-4.9-3.2c-0.7-0.9-1.6-1.6-2.7-2c-2.2-0.8-4.7-0.2-6.3,1.4c-2.8,2.8-2.1,7.3,1,9.3l-7.5,11.8l8.4,5.4L94.6,49c3.1,2,7.5,0.7,8.9-3C104.3,43.9,103.7,41.4,102.1,39.7z"/><path fill="#3f4a54" d="M87,63.8c-0.6,0-1.1-0.2-1.6-0.5c-1.4-0.9-1.8-2.7-0.9-4.1l7.5-11.8c0.4-0.7,1.1-1.1,1.9-1.3c0.8-0.2,1.6,0,2.3,0.4c0.8,0.5,1.7,0.6,2.6,0.3c0.5-0.2,1.4-0.6,1.9-1.8c0.4-1,0.1-2.3-0.7-3.1c-0.4-0.4-1-0.7-1.5-0.8c-2.7-0.6-5-2.1-6.7-4.3c-0.4-0.5-0.8-0.8-1.4-1c-1-0.4-2.3-0.1-3.1,0.7c-0.9,0.9-0.9,2-0.9,2.5c0.1,0.9,0.6,1.7,1.4,2.2c1.4,0.9,1.8,2.7,0.9,4.1s-2.8,1.8-4.1,0.9c-2.3-1.5-3.8-3.9-4.1-6.6c-0.3-2.7,0.6-5.4,2.6-7.4c2.4-2.5,6.2-3.3,9.5-2.1c1.6,0.6,3.1,1.7,4.1,3c0.8,1,1.9,1.8,3.2,2c1.7,0.4,3.2,1.2,4.5,2.4c2.5,2.4,3.3,6.2,2.1,9.5c-1,2.6-3,4.6-5.6,5.4c-1.6,0.5-3.3,0.6-4.9,0.2l-6.2,9.7C89,63.3,88,63.8,87,63.8z"/><path fill="#8d5459" d="M39.3,53.3L39.3,53.3c-1.2-3.4-4.9-5.1-8.3-3.9l-6.6,2.4c-3.4,1.2-5.1,4.9-3.9,8.3l0,0c1.2,3.3,0.9,6.9-0.6,10c-2.3,4.8-2.7,10.5-0.6,15.9c3.7,9.6,14.6,14.9,24.5,11.9c11-3.4,16.9-15.3,13-26c-2-5.4-6-9.4-10.8-11.5C42.9,59.1,40.5,56.5,39.3,53.3z"/><path fill="#fff" d="M24.8,24.2c-1.2,0.2-2.3,0.7-3.1,1.4c-1.5,1.3-3.5,2-5.5,2c-1.1,0-2.2,0.3-3.3,1c-1.9,1.2-3,3.6-2.7,5.8c0.6,3.9,4.5,6.1,8,4.9L23,52.3l9.4-3.4l-4.8-13.2c3.5-1.3,5.1-5.5,3-8.9C29.4,24.9,27.1,23.8,24.8,24.2z"/><path fill="#3f4a54" d="M32.4,51.9c-1.2,0-2.4-0.8-2.8-2l-4.8-13.2c-0.6-1.6,0.2-3.3,1.8-3.8c0.9-0.3,1.5-1,1.8-1.8c0.2-0.5,0.4-1.5-0.3-2.6c-0.6-0.9-1.8-1.5-2.9-1.3c-0.6,0.1-1.2,0.3-1.6,0.7c-2.1,1.8-4.7,2.7-7.4,2.7c-0.6,0-1.1,0.2-1.7,0.5c-0.9,0.6-1.5,1.8-1.3,2.9c0.2,1.3,1,1.9,1.4,2.2c0.8,0.5,1.7,0.6,2.6,0.2c1.6-0.6,3.3,0.2,3.8,1.8s-0.2,3.3-1.8,3.8c-2.6,0.9-5.4,0.7-7.7-0.7c-2.3-1.4-3.9-3.8-4.3-6.5c-0.5-3.4,1.1-7,4.1-8.8c1.5-0.9,3.2-1.4,4.9-1.4c0,0,0,0,0,0c1.3,0,2.5-0.4,3.5-1.3c1.3-1.1,2.9-1.8,4.6-2.1c3.4-0.5,7,1.2,8.8,4.1c1.5,2.3,1.8,5.2,0.9,7.7c-0.6,1.6-1.5,3-2.8,4l3.9,10.8c0.6,1.6-0.2,3.3-1.8,3.8C33.1,51.8,32.8,51.9,32.4,51.9z"/><path fill="#3f4a54" d="M38,101.8c-9.3,0-18-5.6-21.5-14.7c-2.3-6-2.1-12.5,0.7-18.3c1.2-2.5,1.4-5.2,0.5-7.7c-1.8-4.9,0.8-10.4,5.7-12.2l6.6-2.4c4.9-1.8,10.4,0.8,12.1,5.7c0.6,1.6-0.2,3.3-1.8,3.8c-1.6,0.6-3.3-0.2-3.8-1.8c-0.7-1.8-2.7-2.7-4.5-2.1l-6.6,2.4c-1.8,0.7-2.7,2.7-2.1,4.5c1.5,4,1.2,8.4-0.7,12.4c-2.1,4.3-2.3,9.1-0.5,13.5c3.2,8.2,12.3,12.7,20.8,10.1c1.6-0.5,3.3,0.4,3.7,2c0.5,1.6-0.4,3.3-2,3.7C42.5,101.5,40.2,101.8,38,101.8z"/><g><path fill="#8d5459" d="M61.3,83.6L61.3,83.6c-1.2,3.4-4.9,5.1-8.3,3.9l-6.6-2.4c-3.4-1.2-5.1-4.9-3.9-8.3l0,0c1.2-3.3,0.9-6.9-0.6-10c-2.3-4.8-2.7-10.5-0.6-15.9c3.7-9.6,14.6-14.9,24.5-11.9c11,3.4,16.9,15.3,13,26c-2,5.4-6,9.4-10.8,11.5C64.9,77.8,62.5,80.4,61.3,83.6z"/><path fill="#ba8389" d="M56 39.4A11 7.4 0 1 0 56 54.199999999999996A11 7.4 0 1 0 56 39.4Z" transform="rotate(-19.89 55.99 46.837)"/><path fill="#7f4b52" d="M69.8 50A3 3 0 1 0 69.8 56 3 3 0 1 0 69.8 50zM65.8 57A3 3 0 1 0 65.8 63 3 3 0 1 0 65.8 57z"/><path fill="#fff" d="M46.8,112.7c-1.2-0.2-2.3-0.7-3.1-1.4c-1.5-1.3-3.5-2-5.5-2c-1.1,0-2.2-0.3-3.3-1c-1.9-1.2-3-3.6-2.7-5.8c0.6-3.9,4.5-6.1,8-4.9L45,84.6l9.4,3.4l-4.8,13.2c3.5,1.3,5.1,5.5,3,8.9C51.4,112,49.1,113.1,46.8,112.7z"/><path fill="#3f4a54" d="M47.6,115.8c-0.4,0-0.8,0-1.2-0.1c-1.7-0.2-3.3-1-4.7-2.1c-1-0.8-2.2-1.3-3.5-1.3c-1.7,0-3.4-0.5-4.9-1.4c-2.9-1.8-4.6-5.4-4.1-8.8c0.4-2.7,2-5.1,4.3-6.5c2.3-1.4,5.1-1.7,7.7-0.7c1.6,0.6,2.4,2.3,1.8,3.8c-0.6,1.6-2.3,2.4-3.8,1.8c-0.9-0.3-1.8-0.2-2.6,0.2c-0.5,0.3-1.3,0.9-1.4,2.2c-0.2,1.1,0.4,2.3,1.3,2.9c0.5,0.3,1.1,0.5,1.7,0.5c0,0,0,0,0.1,0c2.7,0,5.3,0.9,7.4,2.7c0.4,0.4,1,0.6,1.6,0.7c1.1,0.2,2.3-0.4,2.9-1.3c0.7-1.1,0.5-2.1,0.3-2.6c-0.3-0.9-1-1.5-1.8-1.8c-1.6-0.6-2.4-2.3-1.8-3.8L51.6,87c0.6-1.6,2.3-2.4,3.8-1.8c1.6,0.6,2.4,2.3,1.8,3.8l-3.9,10.8c1.3,1,2.2,2.4,2.8,4c0.9,2.6,0.6,5.4-0.9,7.7C53.6,114.2,50.6,115.8,47.6,115.8z"/><path fill="#fd7" d="M64,64H54H14l9.3,55.8c0.4,2.4,2.5,4.2,4.9,4.2H54h10h15.8c2.4,0,4.5-1.8,4.9-4.2L94,64H64z"/><path fill="#3f4a54" d="M40.1,59c-0.1,0-0.2,0-0.3,0c-1.6-0.2-2.8-1.6-2.7-3.3c0.2-2,0.7-4,1.4-6c4.3-11.2,16.7-17.2,28.1-13.7c4.6,1.4,8.6,4.2,11.6,8c1,1.3,0.8,3.2-0.6,4.2c-1.3,1-3.2,0.8-4.2-0.6c-2.2-2.8-5.1-4.9-8.5-5.9c-8.5-2.6-17.6,1.9-20.8,10.1c-0.6,1.4-0.9,2.9-1.1,4.4C42.9,57.9,41.6,59,40.1,59z"/></g><g><path fill="#ffa869" d="M41.6,107.1l0.6-0.2c5.5-1.8,9.9-6.2,11.7-11.7L64,64H14l5.7,34.3C23.7,105.9,32.8,110,41.6,107.1z"/><path fill="#3f4a54" d="M94,127H79.8c-1.7,0-3-1.3-3-3s1.3-3,3-3H94c1.7,0,3,1.3,3,3S95.7,127,94,127z"/><path fill="#ffa869" d="M64,124v-19V94c0-16.6,13.4-30,30-30h0l-9.3,55.8c-0.4,2.4-2.5,4.2-4.9,4.2H64z"/><path fill="#fff" d="M4 94L14 64 64 64 54.2 94z"/><path fill="#3f4a54" d="M104 97c-1.3 0-2.4-.8-2.8-2.1l-5-15c-.5-1.6.3-3.3 1.9-3.8 1.6-.5 3.3.3 3.8 1.9l5 15c.5 1.6-.3 3.3-1.9 3.8C104.6 97 104.3 97 104 97zM96.3 62.1C95.7 61.4 94.9 61 94 61H74 14c-1.3 0-2.4.8-2.8 2.1l-10 30C.8 94 1 95 1.6 95.8 2.1 96.5 3 97 4 97h50.2c1.3 0 2.5-.8 2.9-2.1l5.2-16.1c.5-1.6-.3-3.3-1.9-3.8-1.6-.5-3.3.4-3.8 1.9l-4.6 14H8.2l8-24H74h16.5l-8.7 52.3c-.2 1-1 1.7-2 1.7H67v-17c0-1.7-1.3-3-3-3s-3 1.3-3 3v17H28.2c-1 0-1.8-.7-2-1.7l-2.6-15.8c-.3-1.6-1.8-2.7-3.5-2.5-1.6.3-2.7 1.8-2.5 3.5l2.6 15.8c.6 3.9 4 6.7 7.9 6.7H64h15.8c3.9 0 7.2-2.8 7.9-6.7L97 64.5C97.1 63.6 96.9 62.7 96.3 62.1zM9 51A3 3 0 1 0 9 57 3 3 0 1 0 9 51zM109 121A3 3 0 1 0 109 127 3 3 0 1 0 109 121z"/></g><g><path fill="#3f4a54" d="M85.8,63c-0.6,0-1.1-0.2-1.6-0.5l-5.9-3.8c-1.4-0.9-1.8-2.7-0.9-4.1s2.7-1.8,4.1-0.9l5.9,3.8c1.4,0.9,1.8,2.7,0.9,4.1C87.7,62.5,86.8,63,85.8,63z"/></g></svg>